HIERARCHY
ROOT Hips
{
  OFFSET -2.9740628571428576 95.22824285714285 -3.405862857142857
  CHANNELS 6 Xposition Yposition Zposition Zrotation Xrotation Yrotation
  JOINT LeftUpLeg
  {
    OFFSET 8.64259 1.9539799999999998 -2.3883499999999995
    CHANNELS 3 Zrotation Xrotation Yrotation
    JOINT LeftLeg
    {
      OFFSET 43.770199999999996 0.0 0.0
      CHANNELS 3 Zrotation Xrotation Yrotation
      JOINT LeftFoot
      {
        OFFSET 40.62380000000001 0.0 0.0
        CHANNELS 3 Zrotation Xrotation Yrotation
        JOINT LeftToeBase
        {
          OFFSET 12.724199999999998 0.0 0.0
          CHANNELS 3 Zrotation Xrotation Yrotation
          End Site
          {
            OFFSET 0.0 0.0 0.0
          }
        }
      }
    }
  }
  JOINT RightUpLeg
  {
    OFFSET -8.2249 1.9539799999999998 -2.59336
    CHANNELS 3 Zrotation Xrotation Yrotation
    JOINT RightLeg
    {
      OFFSET 43.56529999999999 0.0 0.0
      CHANNELS 3 Zrotation Xrotation Yrotation
      JOINT RightFoot
      {
        OFFSET 40.62380000000001 0.0 0.0
        CHANNELS 3 Zrotation Xrotation Yrotation
        JOINT RightToeBase
        {
          OFFSET 12.724199999999998 0.0 0.0
          CHANNELS 3 Zrotation Xrotation Yrotation
          End Site
          {
            OFFSET 0.0 0.0 0.0
          }
        }
      }
    }
  }
  JOINT Spine
  {
    OFFSET 0.16583 0.8771399999999999 6.61349
    CHANNELS 3 Zrotation Xrotation Yrotation
    JOINT Spine1
    {
      OFFSET 7.389628571428571 2e-05 0.0
      CHANNELS 3 Zrotation Xrotation Yrotation
      JOINT Spine2
      {
        OFFSET 11.944500000000001 1e-05 0.0
        CHANNELS 3 Zrotation Xrotation Yrotation
        JOINT Spine3
        {
          OFFSET 14.725400000000004 4e-05 0.0
          CHANNELS 3 Zrotation Xrotation Yrotation
          JOINT Spine4
          {
            OFFSET 10.9679 0.0 0.0
            CHANNELS 3 Zrotation Xrotation Yrotation
            JOINT RightShoulder
            {
              OFFSET 2.46616 -1.6653 3.69651
              CHANNELS 3 Zrotation Xrotation Yrotation
              JOINT RightArm
              {
                OFFSET 13.001199999999999 0.0 0.0
                CHANNELS 3 Zrotation Xrotation Yrotation
                JOINT RightForeArm
                {
                  OFFSET 28.784799999999997 2e-05 0.0
                  CHANNELS 3 Zrotation Xrotation Yrotation
                  JOINT RightHand
                  {
                    OFFSET 26.568800000000003 2e-05 0.0
                    CHANNELS 3 Zrotation Xrotation Yrotation
                    JOINT RightHandMiddle1
                    {
                      OFFSET 8.03675 -0.8865800000000001 0.7278700000000001
                      CHANNELS 3 Zrotation Xrotation Yrotation
                      JOINT RightHandMiddle2
                      {
                        OFFSET 2.7883299999999993 0.0 0.0
                        CHANNELS 3 Zrotation Xrotation Yrotation
                        JOINT RightHandMiddle3
                        {
                          OFFSET 2.4115500000000005 0.0 0.0
                          CHANNELS 3 Zrotation Xrotation Yrotation
                          End Site
                          {
                            OFFSET 0.0 0.0 0.0
                          }
                        }
                      }
                    }
                    JOINT RightHandRing1
                    {
                      OFFSET 7.979660000000002 -0.8867700000000002 -1.00486
                      CHANNELS 3 Zrotation Xrotation Yrotation
                      JOINT RightHandRing2
                      {
                        OFFSET 2.8636799999999996 0.0 0.0
                        CHANNELS 3 Zrotation Xrotation Yrotation
                        JOINT RightHandRing3
                        {
                          OFFSET 2.11079 0.0 0.0
                          CHANNELS 3 Zrotation Xrotation Yrotation
                          End Site
                          {
                            OFFSET 0.0 0.0 0.0
                          }
                        }
                      }
                    }
                    JOINT RightHandPinky1
                    {
                      OFFSET 8.03707 -0.8875299999999999 -2.6069600000000004
                      CHANNELS 3 Zrotation Xrotation Yrotation
                      JOINT RightHandPinky2
                      {
                        OFFSET 1.8462757142857142 0.0 0.0
                        CHANNELS 3 Zrotation Xrotation Yrotation
                        JOINT RightHandPinky3
                        {
                          OFFSET 1.8843400000000001 0.0 0.0
                          CHANNELS 3 Zrotation Xrotation Yrotation
                          End Site
                          {
                            OFFSET 0.0 0.0 0.0
                          }
                        }
                      }
                    }
                    JOINT RightHandIndex1
                    {
                      OFFSET 7.92262 -0.8855000000000002 2.31175
                      CHANNELS 3 Zrotation Xrotation Yrotation
                      JOINT RightHandIndex2
                      {
                        OFFSET 2.63761 0.0 0.0
                        CHANNELS 3 Zrotation Xrotation Yrotation
                        JOINT RightHandIndex3
                        {
                          OFFSET 2.16656 0.0 0.0
                          CHANNELS 3 Zrotation Xrotation Yrotation
                          End Site
                          {
                            OFFSET 0.0 0.0 0.0
                          }
                        }
                      }
                    }
                    JOINT RightHandThumb1
                    {
                      OFFSET 3.4769 0.059800000000000006 2.8878899999999996
                      CHANNELS 3 Zrotation Xrotation Yrotation
                      JOINT RightHandThumb2
                      {
                        OFFSET 2.7768599999999997 0.00010000000000000002 -2e-05
                        CHANNELS 3 Zrotation Xrotation Yrotation
                        JOINT RightHandThumb3
                        {
                          OFFSET 2.420578571428571 -9e-05 0.0
                          CHANNELS 3 Zrotation Xrotation Yrotation
                          End Site
                          {
                            OFFSET 0.0 0.0 0.0
                          }
                        }
                      }
                    }
                  }
                }
              }
            }
            JOINT LeftShoulder
            {
              OFFSET 2.3803400000000003 -1.29275 -3.7523014285714282
              CHANNELS 3 Zrotation Xrotation Yrotation
              JOINT LeftArm
              {
                OFFSET 16.3182 5.9999999999999995e-05 0.0
                CHANNELS 3 Zrotation Xrotation Yrotation
                JOINT LeftForeArm
                {
                  OFFSET 27.090100000000003 0.0 0.0
                  CHANNELS 3 Zrotation Xrotation Yrotation
                  JOINT LeftHand
                  {
                    OFFSET 24.545099999999998 2e-05 0.0
                    CHANNELS 3 Zrotation Xrotation Yrotation
                    JOINT LeftHandMiddle1
                    {
                      OFFSET 9.218019999999997 0.66582 0.5455300000000002
                      CHANNELS 3 Zrotation Xrotation Yrotation
                      JOINT LeftHandMiddle2
                      {
                        OFFSET 2.66255 0.0 0.0
                        CHANNELS 3 Zrotation Xrotation Yrotation
                        JOINT LeftHandMiddle3
                        {
                          OFFSET 2.2804 0.0 0.0
                          CHANNELS 3 Zrotation Xrotation Yrotation
                          End Site
                          {
                            OFFSET 0.0 0.0 0.0
                          }
                        }
                      }
                    }
                    JOINT LeftHandRing1
                    {
                      OFFSET 9.247749999999998 0.66519 -1.1266999999999998
                      CHANNELS 3 Zrotation Xrotation Yrotation
                      JOINT LeftHandRing2
                      {
                        OFFSET 2.4704099999999998 0.0 -2e-05
                        CHANNELS 3 Zrotation Xrotation Yrotation
                        JOINT LeftHandRing3
                        {
                          OFFSET 2.2054000000000005 0.0 0.0
                          CHANNELS 3 Zrotation Xrotation Yrotation
                          End Site
                          {
                            OFFSET 0.0 0.0 0.0
                          }
                        }
                      }
                    }
                    JOINT LeftHandPinky1
                    {
                      OFFSET 9.35383857142857 0.66301 -2.7233200000000006
                      CHANNELS 3 Zrotation Xrotation Yrotation
                      JOINT LeftHandPinky2
                      {
                        OFFSET 1.63407 0.0 0.0
                        CHANNELS 3 Zrotation Xrotation Yrotation
                        JOINT LeftHandPinky3
                        {
                          OFFSET 1.71176 0.0 0.0
                          CHANNELS 3 Zrotation Xrotation Yrotation
                          End Site
                          {
                            OFFSET 0.0 0.0 0.0
                          }
                        }
                      }
                    }
                    JOINT LeftHandIndex1
                    {
                      OFFSET 8.731608571428572 0.6758999999999998 2.0680099999999997
                      CHANNELS 3 Zrotation Xrotation Yrotation
                      JOINT LeftHandIndex2
                      {
                        OFFSET 2.6668899999999995 0.0 0.0
                        CHANNELS 3 Zrotation Xrotation Yrotation
                        JOINT LeftHandIndex3
                        {
                          OFFSET 2.12946 0.0 2e-05
                          CHANNELS 3 Zrotation Xrotation Yrotation
                          End Site
                          {
                            OFFSET 0.0 0.0 0.0
                          }
                        }
                      }
                    }
                    JOINT LeftHandThumb1
                    {
                      OFFSET 4.967354285714285 -0.62265 3.3958599999999994
                      CHANNELS 3 Zrotation Xrotation Yrotation
                      JOINT LeftHandThumb2
                      {
                        OFFSET 2.15386 2e-05 0.0
                        CHANNELS 3 Zrotation Xrotation Yrotation
                        JOINT LeftHandThumb3
                        {
                          OFFSET 2.1951099999999997 -2.9999999999999997e-05 2e-05
                          CHANNELS 3 Zrotation Xrotation Yrotation
                          End Site
                          {
                            OFFSET 0.0 0.0 0.0
                          }
                        }
                      }
                    }
                  }
                }
              }
            }
            JOINT Neck
            {
              OFFSET 5.0226 -0.026629999999999994 0.0
              CHANNELS 3 Zrotation Xrotation Yrotation
              JOINT Head
              {
                OFFSET 6.693637142857143 2.9999999999999997e-05 0.0
                CHANNELS 3 Zrotation Xrotation Yrotation
                End Site
                {
                  OFFSET 0.0 0.0 0.0
                }
              }
            }
          }
        }
      }
    }
  }
}
MOTION
Frames: 4
Frame Time: 0.03333333
57.72559309502414 98.4837226088264 -101.87771748677856 77.95017330258841 62.399000137022114 107.56804100539865 -171.1776961871126 34.10646516740172 94.9799265799971 -41.46722799970009 -18.45226746179935 -7.10035582900765 69.29913249748952 5.53843363049141 4.592587414494847 28.780800000000024 6.2595814996316774e-06 2.6392023911269406e-06 56.51472608951591 16.065213892454185 85.41255589483508 -74.42251660353989 15.635212701726113 -4.90762709092222 25.05718997364801 11.596458786647146 17.19884275064857 28.780798428198047 1.4183182125807646e-05 2.588623682615993e-05 -1.7138568032919426 5.685718982479942 -89.6460833351335 15.290253225598162 -4.194473909465266 0.19749033428384244 3.637912464442992 -4.233200656599713 0.40967792438955786 -18.88728543089591 -4.086636592015807 -1.030164705725795 1.200069287829129 -4.071846335641947 -1.0020227543653044 105.26311138715997 -38.03378064089444 -72.8491026741246 -22.003445474575425 42.43881297443095 33.322993607783644 -7.936813087316345 6.205980258933016 14.062853574838755 -1.9438373630187091 1.5204862222981976 -4.115011600398315 -89.4043060907905 88.97090000000034 89.09411206459774 -0.060488229959855755 5.032339807919683e-07 -4.480636753746298e-07 -0.06392077800184061 7.049437892920309e-07 -1.4668468102580335e-07 -89.39480711787937 88.9811089387658 89.08459954490793 -1.1574198789910297 -5.206950077897852e-06 5.294701400589927e-08 2.575999860014915 2.2985717557617474e-06 2.5092959519332988e-08 -88.8571782996967 89.3579000000006 88.54698350284542 -1.1457800820045325 -2.8757555528392608e-06 -4.932532225538299e-07 1.1457700965555864 2.846596679146084e-06 1.6743529141558895e-07 -89.42264785010777 88.94869999999926 89.11234242928154 0.4092870421041629 1.761661347988142e-06 0.0005584259609807523 -0.636601021780265 2.0196399614930644e-06 1.9114912808633132e-07 104.36400001831161 40.50229996712612 -88.82459872305763 -7.669034574092294 0.1861778279781268 -1.3504420166192082 -11.263400000000116 -2.4435026045291797e-07 6.837583098715416e-05 -88.26593990293436 -26.027923448474432 83.72126325479805 12.892701367462376 -46.76252070172022 -53.067621961597496 103.92875968450461 81.35882880307005 -107.93521028084669 -1.9165660722324578 -0.3085319520827583 -19.42366831422416 -91.18729254645953 -87.82890000000033 -89.99879277844772 3.4088798974416847 2.707440886019891e-06 0.0034142172866414694 -0.9548610043244046 -6.2446457187548685e-06 2.0280875389708395e-06 -91.18771575530128 -89.40149999999952 -89.99920579599143 2.8563609573166793 7.965253669736837e-06 0.0026461922940631045 -3.168439977292768 -7.672354141624761e-06 -3.52864572246097e-07 88.80954694769922 -89.7171056109556 89.99812766410454 2.5448100365367172 1.989537002350915e-06 0.002664929033164413 -2.5448200264073364 4.127961060665495e-06 1.6003419379745897e-07 -91.18829261815807 -86.19730000000055 -89.99979348843694 6.131039716279864 7.498466368248897e-06 0.0066237302700416015 -2.0454194182719787 -1.7803583561438124e-05 -2.6506257813560557e-06 -101.94900000000011 -40.72420000000025 -90.06940000000074 10.017200000000011 1.5066282074137896e-06 2.6366154859359185e-06 -2.669760307078983 -4.0481750000077245e-06 -3.703617182432748e-06 8.904737550926951 12.391454175616172 -11.848922678344337 -8.312983370554978 14.642135110330495 18.820977879765724
57.144253470363026 98.463277722973 -102.43700682034157 77.99980534783097 62.183384450774426 107.6733937351597 -171.73488076338276 34.079601847684735 94.82979700624895 -41.52044213282396 -17.974263578046795 -6.879329656872716 69.44051230623937 5.5185875365288775 4.587706091123598 28.780800000000024 6.260804922471278e-06 2.631988065847318e-06 49.22631193981466 16.48178994797026 85.54942256077665 -75.27649418283383 15.552796052910477 -4.978914294574293 25.10540875517894 11.55212459568489 17.14999937271984 28.780798426196803 1.4182864382238704e-05 2.5883184471762433e-05 -1.723930969825965 5.686865667583431 -89.62909128995867 15.28841186097186 -4.209458882544131 0.210484465310796 3.6360572397080575 -4.247373497227386 0.42368717846461623 -18.889230402522912 -4.104370818885356 -1.0211045662336677 1.198792822101868 -4.089523986127251 -0.9930854671280979 105.31819147467196 -37.89651602868453 -72.6931957803156 -21.77213107285427 42.585334487125735 33.50195539358573 -7.880266396049606 6.323806914820664 13.983065101498923 -2.179555443663944 1.5281608592807907 -4.164765551553969 -89.40430634134667 88.97090000000033 89.09411237896397 -0.060488227418669 4.993626548948646e-07 -4.4818062541464753e-07 -0.0639207822307895 7.184102485905663e-07 -1.4782266313651946e-07 -89.39480688695937 88.98110912913762 89.08459918678477 -1.1574198810348826 -5.20469212211408e-06 5.329571150248786e-08 2.575999858510806 2.3001811694239224e-06 2.546722482429472e-08 -88.85717851369814 89.35790000000057 88.54698369681677 -1.145780082147623 -2.878757039038656e-06 -7.79127898133667e-07 1.1457700946140812 2.8319858317131265e-06 1.6886978204200111e-07 -89.42264820070508 88.9486999999993 89.11234279443934 0.40928704603022287 1.7564067373636473e-06 0.0005584490530089487 -0.6366010211849498 2.015341606086828e-06 1.9164963345682858e-07 104.36400001807898 40.50230001288406 -88.8245987188524 -7.669034583594612 0.18617781069889736 -1.3504420120341256 -11.26340000000011 -2.402343426367385e-07 6.838131498675288e-05 -88.30975473418873 -26.153376128782604 83.63898252142921 12.817729036961232 -46.4525353544328 -53.20479164743712 104.03280962547144 81.23699054433692 -107.88240064660701 -2.102828986339559 -0.2919106984798072 -19.625571612107464 -91.18729289315031 -87.8289000000003 -89.9987931333725 3.4088798970238354 2.7093240770570325e-06 0.0034141675991787553 -0.9548610081152341 -6.238894334041979e-06 2.05256059510066e-06 -91.18771635332044 -89.40149999999954 -89.99920643661103 2.8563609540538715 7.970541425505595e-06 0.0026463340814082102 -3.168439978030787 -7.6694941880914e-06 -3.5234555428045776e-07 88.80954664890638 -89.7171056322376 89.99812736989706 2.5448100348630645 1.9811465273544997e-06 0.0026645715723555455 -2.5448200248710062 4.13761027448266e-06 1.6047287562972999e-07 -91.18829240232228 -86.19730000000052 -89.99979329367112 6.1310397154408856 7.4876960567954025e-06 0.006623489829863073 -2.0454194256999454 -1.7816367254997294e-05 -2.6168141514637296e-06 -101.9490000000001 -40.72420000000024 -90.0694000000007 10.017200000000011 1.500456953357317e-06 2.640231719976057e-06 -2.669760307434547 -4.051180472111096e-06 -3.701115649830507e-06 8.962440548627114 12.33132270837973 -11.724085809367303 -8.32220752151008 14.544526015018722 18.852836292619955
56.57861355513863 98.44287721017628 -102.91339177765558 78.07448852845465 61.93967421378122 107.80329585851466 -172.21453053011842 34.03155448971887 94.71693038048332 -41.5592041877644 -17.566707655056668 -6.693809229953764 69.54387073771798 5.4834029935662505 4.57454841092226 28.780800000000024 6.2617837487589905e-06 2.625767428759926e-06 42.30741311269196 16.872891105075006 85.65429426821062 -75.93351465269828 15.448886818509981 -5.043251773673763 25.1701095615135 11.501042539564969 17.09475787384481 28.780798423585818 1.4182443038245605e-05 2.5881351339667044e-05 -1.7360993079402216 5.689611427259252 -89.61537281790679 15.283379164997845 -4.229741225965464 0.2232779202823617 3.631111309763884 -4.266723778497446 0.43752358109160294 -18.89444534831571 -4.126993608045174 -1.014047746918494 1.1942443809177035 -4.112045090360123 -0.9860574281585469 105.37119299138675 -37.77863494335481 -72.5441783151741 -21.591554140666968 42.704971835394026 33.661512539799645 -7.8395319647557375 6.446638534167121 13.941174667729811 -2.407150425750458 1.5388506092404044 -4.2235066045425915 -89.40430653513124 88.97090000000031 89.0941126254007 -0.06048822464795563 4.960515016445763e-07 -4.482350312966662e-07 -0.06392078641378521 7.30002457071768e-07 -1.4899538286863337e-07 -89.39480661146317 88.98110930275483 89.08459879435847 -1.1574198827759001 -5.20218119409084e-06 5.365184302250644e-08 2.575999857001979 2.3011285943353938e-06 2.572244451240014e-08 -88.8571787054099 89.35790000000054 88.54698386729896 -1.145780082556913 -2.883024046541602e-06 -1.0638285397851336e-06 1.1457700925411196 2.818378498758477e-06 1.701946368680658e-07 -89.42264850364441 88.94869999999935 89.11234311210518 0.40928705004310373 1.7534076390145549e-06 0.0005584588347420527 -0.6366010204659808 2.0104848197137673e-06 1.9208943162927266e-07 104.36400001781594 40.50230005483944 -88.82459871465088 -7.669034592469755 0.18617779274912485 -1.350442008908545 -11.263400000000106 -2.3511681363227175e-07 6.838546340203967e-05 -88.34699287132126 -26.235529814401453 83.55229214405558 12.701123533602324 -46.18371582125068 -53.44141333837011 104.19505797353058 81.15254777736375 -107.92218270788588 -2.278841624101001 -0.267651970217309 -19.786982896375278 -91.18729319022268 -87.82890000000029 -89.99879343902853 3.408879896809019 2.711038457397445e-06 0.0034141240169473087 -0.9548610112538749 -6.234555363046363e-06 2.0781909682827355e-06 -91.18771686427404 -89.40149999999957 -89.99920699860822 2.8563609525754026 7.974816181771001e-06 0.0026464685740411552 -3.1684399787820685 -7.667366298597809e-06 -3.518542852295118e-07 88.80954651021487 -89.7171056474881 89.99812725298561 2.544810033284195 1.9735607239624848e-06 0.002664329228029319 -2.544820023316534 4.14671548491288e-06 1.608475408230655e-07 -91.18829219112607 -86.1973000000005 -89.99979310195417 6.131039714230765 7.477096964619949e-06 0.00662331596996687 -2.045419434796662 -1.7828260386329888e-05 -2.585517276980926e-06 -101.9490000000001 -40.724200000000224 -90.06940000000067 10.017200000000011 1.4958189626514354e-06 2.6437134727503034e-06 -2.6697603083495522 -4.0540026869499045e-06 -3.6989925214396435e-06 9.060547727709 12.278323110866161 -11.62063390835333 -8.314527362358735 14.464820476666324 18.87452133410896
56.03539092199476 98.42477300306139 -103.30919764975228 78.16667856689008 61.67031794638291 107.95096939105959 -172.60646878730552 33.96518110190141 94.6359978055394 -41.58361922521793 -17.218873416993368 -6.540028551762936 69.61724473601645 5.435681290992605 4.555752725205196 28.78080000000002 6.262528452402578e-06 2.620605141990727e-06 36.11332226037703 17.225512546298063 85.72878358162876 -76.38604233306765 15.343671506210098 -5.099729397141867 25.24242765041768 11.44542712752183 17.03516410188525 28.78079842079197 1.4181892178015753e-05 2.5881019548170884e-05 -1.7487929940812403 5.693518585918751 -89.60606235506127 15.276022222052653 -4.252432214105613 0.23379568027058262 3.62391937050653 -4.288480795300563 0.44903157833419505 -18.902026584518616 -4.151138625468976 -1.0100962369976065 1.1873321513777628 -4.136055929340767 -0.9820495884418023 105.41563559123709 -37.685892008023764 -72.41215011535638 -21.454959338830836 42.802155836539484 33.804129288609815 -7.810537288504255 6.56855470523261 13.930023292863169 -2.6204372018100996 1.5515261949178107 -4.2859527361219305 -89.40430666842244 88.9709000000003 89.09411280338546 -0.06048822168148148 4.930975823886351e-07 -4.4820775300124987e-07 -0.06392079066271489 7.400404488068962e-07 -1.5023426483900712e-07 -89.3948062919808 88.98110946475985 89.0845983652219 -1.1574198843028372 -5.199824755800767e-06 5.407909038112033e-08 2.5759998555494117 2.301800810440392e-06 2.580588140397016e-08 -88.85717886678087 89.35790000000051 88.54698400210798 -1.1457800832333946 -2.888538213485143e-06 -1.3484567740577609e-06 1.1457700904171322 2.805605123140052e-06 1.7149106294910626e-07 -89.4226487801426 88.94869999999938 89.11234340000335 0.4092870542084809 1.7524965612225802e-06 0.0005584544176005852 -0.6366010195976186 2.005277060188527e-06 1.9246045755622905e-07 104.36400001755439 40.502300092141326 -88.82459871090211 -7.66903460258363 0.18617777458089343 -1.350442007115994 -11.2634000000001 -2.289491897630965e-07 6.838844247794993e-05 -88.37471844626826 -26.277096706743336 83.46972439730413 12.55996435279567 -45.9579922184883 -53.75458310220624 104.40619787849961 81.10484298991015 -108.0392142540563 -2.442102055152777 -0.23881479007705608 -19.917321196606874 -91.18729344529295 -87.82890000000027 -89.99879370292241 3.4088798967496086 2.7127336883813077e-06 0.0034140816550755557 -0.9548610140238604 -6.231296788746198e-06 2.1044045086838177e-06 -91.18771732693399 -89.40149999999959 -89.99920752500407 2.85636095281928 7.97878771577704e-06 0.002646595954122743 -3.168439979540202 -7.66588027865105e-06 -3.5138396944068097e-07 88.80954650864062 -89.71710566088038 89.99812728368963 2.544810031928764 1.966518529951579e-06 0.0026641813646455558 -2.5448200217329653 4.155550544001281e-06 1.6115946276449684e-07 -91.18829197928687 -86.19730000000048 -89.99979290841814 6.131039712823959 7.4662647666804185e-06 0.006623208725674096 -2.0454194455965182 -1.7839593004056612e-05 -2.5569011288009077e-06 -101.9490000000001 -40.72420000000022 -90.06940000000064 10.01720000000001 1.4931107211173678e-06 2.647036554030952e-06 -2.669760309891851 -4.056956253816492e-06 -3.6972067301364435e-06 9.181309525646284 12.23492710861928 -11.53789322517496 -8.288749808525312 14.404612238253508 18.882438643097046
